<svg width="2159" height="758" viewBox="0 0 2159 758" fill="none" xmlns="http://www.w3.org/2000/svg">
<path d="M868 188.822C868 202.311 875.397 214.504 885.926 222.935C896.866 231.696 906.807 242.134 915.75 254.25C944.396 293.052 958.719 342.401 958.719 402.297C958.719 461.672 944.396 510.5 915.75 548.781C883.458 592.011 838.146 613.625 779.812 613.625C721.479 613.625 676.036 592.011 643.484 548.781C614.578 509.979 600.125 460.891 600.125 401.516C600.125 342.141 614.578 293.052 643.484 254.25C652.161 242.495 661.787 232.319 672.362 223.722C682.734 215.291 690 203.186 690 189.819V189.819C690 163.823 664.288 145.662 642.202 159.374C624.884 170.126 608.905 183.262 594.266 198.781C571.609 223 553.901 252.297 541.141 286.672C528.38 321.047 522 359.458 522 401.906C522 485.761 546.089 553.208 594.266 604.25C641.661 654.25 703.51 679.25 779.812 679.25C856.375 679.25 918.094 654.25 964.969 604.25C1012.89 553.469 1036.84 486.021 1036.84 401.906C1036.84 317.792 1012.89 250.083 964.969 198.781C949.984 182.72 933.525 169.212 915.591 158.256C893.51 144.767 868 162.946 868 188.822V188.822Z" fill="#FF7F00"/>
<path d="M740 117V355C740 376.539 757.461 394 779 394C800.539 394 818 376.539 818 355V117C818 95.4609 800.539 78 779 78C757.461 78 740 95.4609 740 117Z" fill="black"/>
<path d="M78.4062 168.25C78.4062 146.711 95.8671 129.25 117.406 129.25H232.703C335.568 129.25 401.844 159.719 431.531 220.656C442.208 243.052 447.547 269.615 447.547 300.344C447.547 331.073 442.078 357.375 431.141 379.25C420.203 401.125 405.49 419.094 387 433.156C351.062 460.24 303.016 473.781 242.859 473.781H195.531C173.992 473.781 156.531 491.242 156.531 512.781V634C156.531 655.539 139.008 673 117.469 673V673C95.9296 673 78.4062 655.539 78.4062 634V168.25ZM227.625 411.281C274.76 411.281 309.656 402.167 332.312 383.938C354.969 365.708 366.297 337.323 366.297 298.781C366.297 247.479 342.469 214.406 294.812 199.562C278.146 194.354 257.964 191.75 234.266 191.75H195.531C173.992 191.75 156.531 209.211 156.531 230.75V372.281C156.531 393.82 173.992 411.281 195.531 411.281H227.625Z" fill="black"/>
<path d="M1138.95 166.322C1138.95 145.848 1155.55 129.25 1176.03 129.25V129.25C1188.05 129.25 1199.33 135.086 1206.28 144.903L1446.59 484.377C1455.74 497.3 1476.1 489.959 1474.89 474.172V474.172V167.922C1474.89 146.564 1492.2 129.25 1513.56 129.25V129.25C1534.92 129.25 1552.23 146.564 1552.23 167.922V636.147C1552.23 656.5 1535.73 673 1515.38 673V673C1503.46 673 1492.27 667.23 1485.36 657.514L1259.27 339.797L1250.88 327.742C1239.9 311.943 1215.08 320.592 1216.3 339.797V339.797V634.328C1216.3 655.686 1198.98 673 1177.62 673V673C1156.27 673 1138.95 655.686 1138.95 634.328V166.322Z" fill="black"/>
<path d="M2080.75 637.4C2080.75 655.148 2068.78 670.814 2051.24 673.502C2026.22 677.334 1996.47 679.25 1962 679.25C1913.04 679.25 1870.98 673.13 1835.83 660.891C1800.93 648.651 1770.85 630.552 1745.59 606.594C1691.43 556.073 1664.34 485.76 1664.34 395.656C1664.34 336.802 1678.41 286.021 1706.53 243.312C1744.55 185.24 1803.02 148.26 1881.92 132.375C1906.14 127.688 1935.83 125.344 1970.98 125.344C1993.18 125.344 2013.45 126.018 2031.8 127.367C2049.13 128.641 2062 143.406 2062 160.784V160.784C2062 183.409 2040.47 200.542 2017.92 198.698C2002.68 197.451 1985.34 196.828 1965.91 196.828C1924.5 196.828 1890.52 201.516 1863.95 210.891C1837.39 220.266 1815.39 233.677 1797.94 251.125C1763.04 285.24 1745.59 333.417 1745.59 395.656C1745.59 458.938 1762.78 509.589 1797.16 547.609C1834.66 589.016 1888.17 609.719 1957.7 609.719C1960.91 609.719 1964.07 609.693 1967.19 609.642C1987.31 609.31 2002.62 592.392 2002.62 572.272V446.375C2002.62 424.836 2020.15 407.375 2041.69 407.375V407.375C2063.23 407.375 2080.75 424.836 2080.75 446.375V637.4Z" fill="black"/>
</svg>
